HIERARCHY
ROOT hips
{
  OFFSET 4.514983404067499e-9 10.105397940993303 1.318478203070619
  CHANNELS 6 Xposition Yposition Zposition Yrotation Xrotation Zrotation
  JOINT spine
  {
    OFFSET -3.891297943093837e-9 0.5743022203102706 0
    CHANNELS 3 Yrotation Xrotation Zrotation
    JOINT chest
    {
      OFFSET 0 1.2550312016247926 0
      CHANNELS 3 Yrotation Xrotation Zrotation
      JOINT upperChest
      {
        OFFSET 0 1.2059856050120283 0
        CHANNELS 3 Yrotation Xrotation Zrotation
        JOINT neck
        {
          OFFSET 0 1.5290392449770056 0
          CHANNELS 3 Yrotation Xrotation Zrotation
          JOINT head
          {
            OFFSET 0 0.8186276690878121 0
            CHANNELS 3 Yrotation Xrotation Zrotation
            JOINT leftEye
            {
              OFFSET 0.4540883942785781 -0.2684596961258452 0.6133497327236779
              CHANNELS 3 Yrotation Xrotation Zrotation
              End Site
              {
                OFFSET 0.4540883942785781 -0.2684596961258452 0.6133497327236779
              }
            }
            JOINT rightEye
            {
              OFFSET -0.4540889229417456 -0.26846010916843954 0.6133525398671689
              CHANNELS 3 Yrotation Xrotation Zrotation
              End Site
              {
                OFFSET -0.4540889229417456 -0.26846010916843954 0.6133525398671689
              }
            }
          }
        }
        JOINT leftShoulder
        {
          OFFSET 1.1700010731725468 -0.4176065950681176 0
          CHANNELS 3 Yrotation Xrotation Zrotation
          JOINT leftUpperArm
          {
            OFFSET 1.1803911524554955 0 0
            CHANNELS 3 Yrotation Xrotation Zrotation
            JOINT leftLowerArm
            {
              OFFSET 2.4406171707858904 0 0
              CHANNELS 3 Yrotation Xrotation Zrotation
              JOINT leftHand
              {
                OFFSET 2.3832177068873874 0 0
                CHANNELS 3 Yrotation Xrotation Zrotation
                JOINT leftIndexProximal
                {
                  OFFSET 0.7310175006235151 0.08192774217833776 0.20404791572985242
                  CHANNELS 3 Yrotation Xrotation Zrotation
                  JOINT leftIndexIntermediate
                  {
                    OFFSET 0.3688845439429529 -0.010662034455094949 -0.014226011560394963
                    CHANNELS 3 Yrotation Xrotation Zrotation
                    JOINT leftIndexDistal
                    {
                      OFFSET 0.2271119941018298 -0.007897656478952575 -0.007580683836364496
                      CHANNELS 3 Yrotation Xrotation Zrotation
                      End Site
                      {
                        OFFSET 0.2271119941018298 -0.007897656478952575 -0.007580683836364496
                      }
                    }
                  }
                }
                JOINT leftLittleProximal
                {
                  OFFSET 0.678269929308182 0.08192620621401336 -0.323876516389586
                  CHANNELS 3 Yrotation Xrotation Zrotation
                  JOINT leftLittleIntermediate
                  {
                    OFFSET 0.34904545821382604 -0.0000017106393073174075 8.629360392919949e-9
                    CHANNELS 3 Yrotation Xrotation Zrotation
                    JOINT leftLittleDistal
                    {
                      OFFSET 0.2011060672849896 0.0031247840072243793 0.0038660318003989197
                      CHANNELS 3 Yrotation Xrotation Zrotation
                      End Site
                      {
                        OFFSET 0.2011060672849896 0.0031247840072243793 0.0038660318003989197
                      }
                    }
                  }
                }
                JOINT leftMiddleProximal
                {
                  OFFSET 0.7368181082522638 0.0819260272939426 0.02272335773438093
                  CHANNELS 3 Yrotation Xrotation Zrotation
                  JOINT leftMiddleIntermediate
                  {
                    OFFSET 0.41136739116025356 -0.0000015892429323649537 5.27860346960507e-8
                    CHANNELS 3 Yrotation Xrotation Zrotation
                    JOINT leftMiddleDistal
                    {
                      OFFSET 0.25378150303820757 -0.0000015332469289752737 1.3442958385345705e-8
                      CHANNELS 3 Yrotation Xrotation Zrotation
                      End Site
                      {
                        OFFSET 0.25378150303820757 -0.0000015332469289752737 1.3442958385345705e-8
                      }
                    }
                  }
                }
                JOINT leftRingProximal
                {
                  OFFSET 0.7284256823094712 0.08192611199801392 -0.1508405069143483
                  CHANNELS 3 Yrotation Xrotation Zrotation
                  JOINT leftRingIntermediate
                  {
                    OFFSET 0.381593741461262 -0.0000016975471202052006 6.592486757883709e-8
                    CHANNELS 3 Yrotation Xrotation Zrotation
                    JOINT leftRingDistal
                    {
                      OFFSET 0.22014536669820362 -0.0027420652959939673 -0.005037497035641991
                      CHANNELS 3 Yrotation Xrotation Zrotation
                      End Site
                      {
                        OFFSET 0.22014536669820362 -0.0027420652959939673 -0.005037497035641991
                      }
                    }
                  }
                }
                JOINT leftThumbProximal
                {
                  OFFSET 0.10842212958334652 -0.16573713992498873 -0.07779936144556289
                  CHANNELS 3 Yrotation Xrotation Zrotation
                  JOINT leftThumbIntermediate
                  {
                    OFFSET 0.40720553822379024 -0.01751267955631075 0.31852684427382305
                    CHANNELS 3 Yrotation Xrotation Zrotation
                    JOINT leftThumbDistal
                    {
                      OFFSET 0.23412859218032667 -0.01859690713588802 0.2146635043319005
                      CHANNELS 3 Yrotation Xrotation Zrotation
                      End Site
                      {
                        OFFSET 0.23412859218032667 -0.01859690713588802 0.2146635043319005
                      }
                    }
                  }
                }
              }
            }
          }
        }
        JOINT rightShoulder
        {
          OFFSET -1.1700037144859516 -0.41760703856471126 0
          CHANNELS 3 Yrotation Xrotation Zrotation
          JOINT rightUpperArm
          {
            OFFSET -1.1803910289368023 0 0
            CHANNELS 3 Yrotation Xrotation Zrotation
            JOINT rightLowerArm
            {
              OFFSET -2.440617418222133 0 0
              CHANNELS 3 Yrotation Xrotation Zrotation
              JOINT rightHand
              {
                OFFSET -2.3832181162662343 0 0
                CHANNELS 3 Yrotation Xrotation Zrotation
                JOINT rightIndexProximal
                {
                  OFFSET -0.7310168852843362 0.08192787643494381 0.20404785424302163
                  CHANNELS 3 Yrotation Xrotation Zrotation
                  JOINT rightIndexIntermediate
                  {
                    OFFSET -0.3688846010723953 -0.01066191355993129 -0.014226020535245201
                    CHANNELS 3 Yrotation Xrotation Zrotation
                    JOINT rightIndexDistal
                    {
                      OFFSET -0.22711216276130997 -0.007898902439410271 -0.007580718044857868
                      CHANNELS 3 Yrotation Xrotation Zrotation
                      End Site
                      {
                        OFFSET -0.22711216276130997 -0.007898902439410271 -0.007580718044857868
                      }
                    }
                  }
                }
                JOINT rightLittleProximal
                {
                  OFFSET -0.6782685897119165 0.08192501740206293 -0.3238766118101876
                  CHANNELS 3 Yrotation Xrotation Zrotation
                  JOINT rightLittleIntermediate
                  {
                    OFFSET -0.34904682243945895 -2.664019085329983e-7 3.792712677253007e-8
                    CHANNELS 3 Yrotation Xrotation Zrotation
                    JOINT rightLittleDistal
                    {
                      OFFSET -0.20110609302945537 0.0031260842677420797 0.0038661724369087186
                      CHANNELS 3 Yrotation Xrotation Zrotation
                      End Site
                      {
                        OFFSET -0.20110609302945537 0.0031260842677420797 0.0038661724369087186
                      }
                    }
                  }
                }
                JOINT rightMiddleProximal
                {
                  OFFSET -0.7368168209984411 0.08192485183145659 0.022723294831187846
                  CHANNELS 3 Yrotation Xrotation Zrotation
                  JOINT rightMiddleIntermediate
                  {
                    OFFSET -0.4113687575187084 -9.03141548214137e-8 4.759541079313312e-8
                    CHANNELS 3 Yrotation Xrotation Zrotation
                    JOINT rightMiddleDistal
                    {
                      OFFSET -0.2537822083525749 -9.554208624251714e-8 -1.6364827826187422e-9
                      CHANNELS 3 Yrotation Xrotation Zrotation
                      End Site
                      {
                        OFFSET -0.2537822083525749 -9.554208624251714e-8 -1.6364827826187422e-9
                      }
                    }
                  }
                }
                JOINT rightRingProximal
                {
                  OFFSET -0.7284243957721679 0.08192492753028224 -0.15084062217729294
                  CHANNELS 3 Yrotation Xrotation Zrotation
                  JOINT rightRingIntermediate
                  {
                    OFFSET -0.381595106800805 -2.5662436442530634e-7 2.929475539925619e-8
                    CHANNELS 3 Yrotation Xrotation Zrotation
                    JOINT rightRingDistal
                    {
                      OFFSET -0.22014544912608125 -0.002738002524970362 -0.0050375115645966
                      CHANNELS 3 Yrotation Xrotation Zrotation
                      End Site
                      {
                        OFFSET -0.22014544912608125 -0.002738002524970362 -0.0050375115645966
                      }
                    }
                  }
                }
                JOINT rightThumbProximal
                {
                  OFFSET -0.10842026863657162 -0.16573778435706465 -0.07779917642461898
                  CHANNELS 3 Yrotation Xrotation Zrotation
                  JOINT rightThumbIntermediate
                  {
                    OFFSET -0.40720600760521597 -0.017512298079938038 0.3185267362029824
                    CHANNELS 3 Yrotation Xrotation Zrotation
                    JOINT rightThumbDistal
                    {
                      OFFSET -0.2341289751103648 -0.018594162598156494 0.21466399510514025
                      CHANNELS 3 Yrotation Xrotation Zrotation
                      End Site
                      {
                        OFFSET -0.2341289751103648 -0.018594162598156494 0.21466399510514025
                      }
                    }
                  }
                }
              }
            }
          }
        }
      }
    }
  }
  JOINT leftUpperLeg
  {
    OFFSET -0.8565189721517369 0.4427277044191169 0
    CHANNELS 3 Yrotation Xrotation Zrotation
    JOINT leftLowerLeg
    {
      OFFSET 0 -3.918486704769693 0
      CHANNELS 3 Yrotation Xrotation Zrotation
      JOINT leftFoot
      {
        OFFSET 6.174701361744139e-7 -0.055233446196002234 4.612027801972084
        CHANNELS 3 Yrotation Xrotation Zrotation
        JOINT leftToes
        {
          OFFSET -3.4372540951010944e-7 -0.705284859504459 1.2256624571888697
          CHANNELS 3 Yrotation Xrotation Zrotation
          End Site
          {
            OFFSET -3.4372540951010944e-7 -0.705284859504459 1.2256624571888697
          }
        }
      }
    }
  }
  JOINT rightUpperLeg
  {
    OFFSET 0.8565189732197466 0.44272769569168136 0
    CHANNELS 3 Yrotation Xrotation Zrotation
    JOINT rightLowerLeg
    {
      OFFSET 0 -3.918486692649319 0
      CHANNELS 3 Yrotation Xrotation Zrotation
      JOINT rightFoot
      {
        OFFSET 6.995136552362391e-7 -0.05523244834012664 4.612028499942008
        CHANNELS 3 Yrotation Xrotation Zrotation
        JOINT rightToes
        {
          OFFSET -4.2566694985479714e-7 -0.7052846587611067 1.22566236096697
          CHANNELS 3 Yrotation Xrotation Zrotation
          End Site
          {
            OFFSET -4.2566694985479714e-7 -0.7052846587611067 1.22566236096697
          }
        }
      }
    }
  }
}
MOTION
Frames: 4
Frame Time: 0.03333333333333333
-0.29254385828971863 -0.4625451577901778 -2.697178363800049 -0.33785693150477547 -17.16999650549498 -3.505630502617364 -0.4086774351043384 0.3968006371742218 -1.5767334153914405 -2.386260842496714 1.5993566820552052 -4.462326785485305 0 0 0 -0.12141390384565093 20.448903149595342 2.798047115211232 -0.4736683628548596 2.041874976314625 1.4122671883864186 0 0 0 0 0 0 -27.218897163283987 7.829677116073323 23.616808265519065 -60.885380271436084 -38.7926188714457 32.321879517687954 -22.40075367965207 0.055849511862211036 0.28205030216050003 3.8177784074010956 -10.135716603520011 13.746850689662045 5.981882033555571 4.641029351078477 -75.5934697895122 6.088642776038374 7.211824304298483 -99.67705213805534 4.717444662004828 2.193157090790566 -49.84956720591975 7.018632658116962 8.568852858632013 -75.01614945422311 1.9701655282412096 7.244000884178329 -100.13728779793787 4.717441681736933 2.1931470515964864 -49.84958908181905 5.981453694282511 4.639364157217991 -75.5775150453566 6.088359563833437 7.213532562530713 -99.69309458988545 4.717445939262491 2.1931532459928254 -49.84957683774158 5.981882033555571 4.641029351078477 -75.5934697895122 6.088642776038374 7.211824304298483 -99.67705213805534 4.717445087757382 2.1931573043904407 -49.84956720591975 22.679921274944252 -19.397099667795157 4.556570541558254 26.595773910127576 29.742575856504754 5.836779869874279 10.751503524883491 11.830918179081644 1.9459938283615854 29.35378000741721 4.783977566535085 -3.338618910570131 32.87771661842046 -25.97428905536861 -36.73301424154763 16.523387751963813 0.03055199122416068 -0.21049067690210513 60.113949530629704 -55.983609183753515 -39.48677311400303 -6.236524631674909 5.92287310278266 87.03912200831667 -6.198842135855415 5.4903549286202695 83.05101856341332 -4.138329654795386 1.5709615768724439 41.560598511624754 -6.236530177968828 5.922876107027986 87.03912200831667 -6.198853164985059 5.490355786328809 83.05101856341332 -4.138336895671628 1.570972893626828 41.560598511624754 -6.236524631674909 5.92287310278266 87.03912200831667 -6.198842135855415 5.4903549286202695 83.05101856341332 -4.138329228861484 1.5709615768724439 41.560598511624754 -6.236525058312907 5.92287310278266 87.03912200831667 -6.198841709508603 5.490354499766 83.05101856341332 -4.138329654795386 1.5709615768724439 41.560598511624754 -8.736926964047134 -13.061344043070108 3.677825022062578 -52.740464199190484 37.895120482776825 -25.41796159344126 -19.291966549945272 18.61091032515765 -5.335190934581781 12.066775478041611 5.268732810482849 14.570786106423336 1.1257201080389716 30.05108427787538 0.6712660093264408 1.3635968492652901 -18.812182530060152 -8.541259178698969 2.1976987196312563e-8 -0.0026540598091788653 0.0000017074050072089573 -7.862374112907872 7.936799885253677 -2.6630080353544643 -5.52997686274965 27.928069458351384 -2.8173948277125533 -1.4060484353698837 -17.964499606005283 6.002792507552526 -7.15650756655492e-7 -0.00005558161407952648 0.0000025707791450443287
-0.27663230895996094 -0.45411563050746295 -2.7034177780151367 -0.13830609093790622 -17.046143900556153 -3.40217910724195 -0.37990411018787257 0.30810192681118953 -1.5256070778943849 -2.2470611899488273 1.2427745944978588 -4.249449213791322 0 0 0 -0.17754702263686895 20.289304670185242 2.2824466366188405 -1.0506752526786551 -0.5763423089399948 1.2719598920004482 0 0 0 0 0 0 -26.49766239681006 7.480050853271188 23.166119146036046 -60.389983664488426 -38.63400187795339 33.40587756745177 -25.06609369827142 0.06971027522931529 0.31356223481322065 4.976869026354067 -9.558270408141663 19.66405768023513 5.981882033555571 4.641029351078477 -75.5934697895122 6.088642776038374 7.211824304298483 -99.67705213805534 4.717444662004828 2.193157090790566 -49.84956720591975 7.018632658116962 8.568852858632013 -75.01614945422311 1.9701655282412096 7.244000884178329 -100.13728779793787 4.717441681736933 2.1931470515964864 -49.84958908181905 5.981453694282511 4.639364157217991 -75.5775150453566 6.088359563833437 7.213532562530713 -99.69309458988545 4.717445939262491 2.1931532459928254 -49.84957683774158 5.981882033555571 4.641029351078477 -75.5934697895122 6.088642776038374 7.211824304298483 -99.67705213805534 4.717445087757382 2.1931573043904407 -49.84956720591975 22.679921274944252 -19.397099667795157 4.556570541558254 26.595773910127576 29.742575856504754 5.836779869874279 10.751503524883491 11.830918179081644 1.9459938283615854 28.793874781629555 4.5987210216980206 -2.3926080557526266 29.437115974662426 -31.118387167355902 -33.29047154882819 24.49826332896846 0.06662455499459984 -0.3068897048050716 49.301023157378644 -52.1768917487614 -31.967406156649666 -6.236524631674909 5.92287310278266 87.03912200831667 -6.198842135855415 5.4903549286202695 83.05101856341332 -4.138329654795386 1.5709615768724439 41.560598511624754 -6.236530177968828 5.922876107027986 87.03912200831667 -6.198853164985059 5.490355786328809 83.05101856341332 -4.138336895671628 1.570972893626828 41.560598511624754 -6.236524631674909 5.92287310278266 87.03912200831667 -6.198842135855415 5.4903549286202695 83.05101856341332 -4.138329228861484 1.5709615768724439 41.560598511624754 -6.236525058312907 5.92287310278266 87.03912200831667 -6.198841709508603 5.490354499766 83.05101856341332 -4.138329654795386 1.5709615768724439 41.560598511624754 -8.736926964047134 -13.061344043070108 3.677825022062578 -52.740464199190484 37.895120482776825 -25.41796159344126 -19.291966549945272 18.61091032515765 -5.335190934581781 11.857365518160941 5.294566695373802 14.244704972017109 1.1348702566052538 29.754704761972896 0.6709266522804439 1.3241987038423966 -18.631239062360308 -8.38673489468109 2.1976987196312563e-8 -0.0026540598091788653 0.0000017074050072089573 -7.873498532602827 7.921880984355507 -2.8191445940833906 -5.9524204929480184 27.57786835958859 -2.999883313665632 -1.4152610891757207 -17.70672579245037 6.19132284875896 -7.15650756655492e-7 -0.00005558161407952648 0.0000025707791450443287
-0.24283631145954132 -0.4360702050924239 -2.723858118057251 0.11790615713553404 -16.429746922247777 -3.2728513409062665 -0.26225858589108275 0.15910867413889992 -1.4897045296665883 -1.7468547536891912 0.6422976551093903 -4.0148819237534115 0 0 0 -0.34494726436043577 19.105981833303513 1.6278954227088263 -2.075415278775947 -7.64438619796263 1.0117652732220526 0 0 0 0 0 0 -24.82558739304253 6.596883056692711 21.726133562835777 -62.39687026365483 -41.156435459138955 35.02949128184173 -34.667142636635546 0.13139757354210527 0.4210261589999255 8.385591431544194 -8.243053715059974 27.333303045296137 5.981882033555571 4.641029351078477 -75.5934697895122 6.088642776038374 7.211824304298483 -99.67705213805534 4.717444662004828 2.193157090790566 -49.84956720591975 7.018632658116962 8.568852858632013 -75.01614945422311 1.9701655282412096 7.244000884178329 -100.13728779793787 4.717441681736933 2.1931470515964864 -49.84958908181905 5.981453694282511 4.639364157217991 -75.5775150453566 6.088359563833437 7.213532562530713 -99.69309458988545 4.717445939262491 2.1931532459928254 -49.84957683774158 5.981882033555571 4.641029351078477 -75.5934697895122 6.088642776038374 7.211824304298483 -99.67705213805534 4.717445087757382 2.1931573043904407 -49.84956720591975 22.679921274944252 -19.397099667795157 4.556570541558254 26.595773910127576 29.742575856504754 5.836779869874279 10.751503524883491 11.830918179081644 1.9459938283615854 26.166082879117408 3.965636109674939 -0.6393696722250877 24.163165128348336 -41.23870351412113 -21.88104243132657 41.23557822937562 0.18353952977114077 -0.4878512372811139 33.79626053440364 -43.69269548906569 -22.159645072635083 -6.236524631674909 5.92287310278266 87.03912200831667 -6.198842135855415 5.4903549286202695 83.05101856341332 -4.138329654795386 1.5709615768724439 41.560598511624754 -6.236530177968828 5.922876107027986 87.03912200831667 -6.198853164985059 5.490355786328809 83.05101856341332 -4.138336895671628 1.570972893626828 41.560598511624754 -6.236524631674909 5.92287310278266 87.03912200831667 -6.198842135855415 5.4903549286202695 83.05101856341332 -4.138329228861484 1.5709615768724439 41.560598511624754 -6.236525058312907 5.92287310278266 87.03912200831667 -6.198841709508603 5.490354499766 83.05101856341332 -4.138329654795386 1.5709615768724439 41.560598511624754 -8.736926964047134 -13.061344043070108 3.677825022062578 -52.740464199190484 37.895120482776825 -25.41796159344126 -19.291966549945272 18.61091032515765 -5.335190934581781 11.398630757110924 4.88773807219886 13.557080283641149 1.3822507684589993 29.216564347110722 0.7906228473872345 1.2603685107683698 -18.218589027702265 -8.114082943462826 2.1976987196312563e-8 -0.0026540598091788653 0.0000017074050072089573 -7.944907085929315 7.445827717836664 -3.0197336855920898 -6.611476870302337 26.84350543064552 -3.2539104165516397 -1.4382517289971228 -17.06858108648523 6.492345372371335 -7.15650756655492e-7 -0.00005558161407952648 0.0000025707791450443287
-0.20929090678691864 -0.42431140077113483 -2.7519843578338623 0.4581672930034413 -15.477807113179615 -3.2532786052357077 -0.10143932710113054 0.05707801936456149 -1.534751926345736 -1.1027742598131287 0.22982095383412424 -4.009941650690431 0 0 0 -0.5721651928194565 17.01182353948074 1.5646614834608361 -2.94453846529246 -16.65458473634207 0.7462803737932457 0 0 0 0 0 0 -22.986845904767534 5.595334462263938 19.533325806690147 -68.63631512573262 -47.465904457957414 37.1127335701723 -49.59628744021655 0.2603987369336001 0.5636026881666913 12.568187074868323 -5.7629937922136385 29.2168607483207 5.981882033555571 4.641029351078477 -75.5934697895122 6.088642776038374 7.211824304298483 -99.67705213805534 4.717444662004828 2.193157090790566 -49.84956720591975 7.018632658116962 8.568852858632013 -75.01614945422311 1.9701655282412096 7.244000884178329 -100.13728779793787 4.717441681736933 2.1931470515964864 -49.84958908181905 5.981453694282511 4.639364157217991 -75.5775150453566 6.088359563833437 7.213532562530713 -99.69309458988545 4.717445939262491 2.1931532459928254 -49.84957683774158 5.981882033555571 4.641029351078477 -75.5934697895122 6.088642776038374 7.211824304298483 -99.67705213805534 4.717445087757382 2.1931573043904407 -49.84956720591975 22.679921274944252 -19.397099667795157 4.556570541558254 26.595773910127576 29.742575856504754 5.836779869874279 10.751503524883491 11.830918179081644 1.9459938283615854 21.808734462981832 3.1584787360140765 1.0282509637259731 19.67131613179411 -52.29667667324874 -6.281353340604016 58.35763678452288 0.3518251483979663 -0.6300971053284519 23.996974864962056 -35.766960684402946 -17.13934224751046 -6.236524631674909 5.92287310278266 87.03912200831667 -6.198842135855415 5.4903549286202695 83.05101856341332 -4.138329654795386 1.5709615768724439 41.560598511624754 -6.236530177968828 5.922876107027986 87.03912200831667 -6.198853164985059 5.490355786328809 83.05101856341332 -4.138336895671628 1.570972893626828 41.560598511624754 -6.236524631674909 5.92287310278266 87.03912200831667 -6.198842135855415 5.4903549286202695 83.05101856341332 -4.138329228861484 1.5709615768724439 41.560598511624754 -6.236525058312907 5.92287310278266 87.03912200831667 -6.198841709508603 5.490354499766 83.05101856341332 -4.138329654795386 1.5709615768724439 41.560598511624754 -8.736926964047134 -13.061344043070108 3.677825022062578 -52.740464199190484 37.895120482776825 -25.41796159344126 -19.291966549945272 18.61091032515765 -5.335190934581781 10.97030748308048 3.809754803754182 12.954006846122756 1.4403741584356204 29.083868256031476 0.817246576994986 1.2097892834890753 -17.916838198071524 -7.796316519420399 2.1976987196312563e-8 -0.0026540598091788653 0.0000017074050072089573 -8.011366208399807 6.453846609011526 -3.0350305398153044 -7.367289526562004 26.375483245953735 -3.5682037185877786 -1.5091572732650052 -16.49089531563439 6.800008750539239 -7.15650756655492e-7 -0.00005558161407952648 0.0000025707791450443287
